HIERARCHY
ROOT Hips
{
    OFFSET   0.000000   0.000000   0.000000
    CHANNELS 6 Xposition Yposition Zposition Zrotation Xrotation Yrotation
    JOINT Chest
    {
        OFFSET   0.000000   8.007230   0.000000
        CHANNELS 3 Zrotation Xrotation Yrotation
        JOINT Chest2
        {
            OFFSET   0.000000  22.077100   0.000000
            CHANNELS 3 Zrotation Xrotation Yrotation
            JOINT Neck
            {
                OFFSET   0.000000  23.254800  -0.000021
                CHANNELS 3 Zrotation Xrotation Yrotation
                JOINT Head
                {
                    OFFSET   0.000000  14.370000   1.956610
                    CHANNELS 3 Zrotation Xrotation Yrotation
                    End Site
                    {
                        OFFSET   0.000000  19.566000   0.000000
                    }
                }
            }
            JOINT LeftCollar
            {
                OFFSET   3.911900  19.017000  -0.467063
                CHANNELS 3 Zrotation Xrotation Yrotation
                JOINT LeftShoulder
                {
                    OFFSET  10.383700   0.000000   0.000000
                    CHANNELS 3 Zrotation Xrotation Yrotation
                    JOINT LeftElbow
                    {
                        OFFSET  26.662100   0.001529   0.000325
                        CHANNELS 3 Zrotation Xrotation Yrotation
                        JOINT LeftWrist
                        {
                            OFFSET  28.869000  -0.000011  -0.000096
                            CHANNELS 3 Zrotation Xrotation Yrotation
                            JOINT LeftFinger0
                            {
                                OFFSET   2.044650  -2.323460   3.252850
                                CHANNELS 3 Zrotation Xrotation Yrotation
                                JOINT LeftFinger01
                                {
                                    OFFSET   3.088130   0.000000   0.000000
                                    CHANNELS 3 Zrotation Xrotation Yrotation
                                    JOINT LeftFinger02
                                    {
                                        OFFSET   2.639460   0.000000   0.000000
                                        CHANNELS 3 Zrotation Xrotation Yrotation
                                        End Site
                                        {
                                            OFFSET   2.582190   0.000000   0.000000
                                        }
                                    }
                                }
                            }
                            JOINT LeftFinger1
                            {
                                OFFSET   8.364480   0.000000   3.252850
                                CHANNELS 3 Zrotation Xrotation Yrotation
                                JOINT LeftFinger11
                                {
                                    OFFSET   4.646930   0.000000   0.000000
                                    CHANNELS 3 Zrotation Xrotation Yrotation
                                    JOINT LeftFinger12
                                    {
                                        OFFSET   2.323460   0.000000   0.000000
                                        CHANNELS 3 Zrotation Xrotation Yrotation
                                        End Site
                                        {
                                            OFFSET   2.273050   0.000000   0.000000
                                        }
                                    }
                                }
                            }
                            JOINT LeftFinger2
                            {
                                OFFSET   8.364480   0.000016   1.078090
                                CHANNELS 3 Zrotation Xrotation Yrotation
                                JOINT LeftFinger21
                                {
                                    OFFSET   5.111620   0.000000   0.000000
                                    CHANNELS 3 Zrotation Xrotation Yrotation
                                    JOINT LeftFinger22
                                    {
                                        OFFSET   2.788160   0.000017   0.000000
                                        CHANNELS 3 Zrotation Xrotation Yrotation
                                        End Site
                                        {
                                            OFFSET   2.727660   0.000000   0.000000
                                        }
                                    }
                                }
                            }
                            JOINT LeftFinger3
                            {
                                OFFSET   7.899780   0.000015  -1.078090
                                CHANNELS 3 Zrotation Xrotation Yrotation
                                JOINT LeftFinger31
                                {
                                    OFFSET   4.646920   0.000000   0.000000
                                    CHANNELS 3 Zrotation Xrotation Yrotation
                                    JOINT LeftFinger32
                                    {
                                        OFFSET   2.323470   0.000000   0.000000
                                        CHANNELS 3 Zrotation Xrotation Yrotation
                                        End Site
                                        {
                                            OFFSET   2.273050   0.000000   0.000000
                                        }
                                    }
                                }
                            }
                            JOINT LeftFinger4
                            {
                                OFFSET   7.435090   0.000000  -3.252850
                                CHANNELS 3 Zrotation Xrotation Yrotation
                                JOINT LeftFinger41
                                {
                                    OFFSET   3.717550   0.000000   0.000000
                                    CHANNELS 3 Zrotation Xrotation Yrotation
                                    JOINT LeftFinger42
                                    {
                                        OFFSET   1.858760   0.000000   0.000000
                                        CHANNELS 3 Zrotation Xrotation Yrotation
                                        End Site
                                        {
                                            OFFSET   1.818440   0.000000   0.000000
                                        }
                                    }
                                }
                            }
                        }
                    }
                }
            }
            JOINT RightCollar
            {
                OFFSET  -3.911900  19.017000  -0.467062
                CHANNELS 3 Zrotation Xrotation Yrotation
                JOINT RightShoulder
                {
                    OFFSET -10.383700   0.000015   0.000000
                    CHANNELS 3 Zrotation Xrotation Yrotation
                    JOINT RightElbow
                    {
                        OFFSET -26.662100   0.001341   0.000385
                        CHANNELS 3 Zrotation Xrotation Yrotation
                        JOINT RightWrist
                        {
                            OFFSET -28.869000   0.000025  -0.000080
                            CHANNELS 3 Zrotation Xrotation Yrotation
                            JOINT RightFinger0
                            {
                                OFFSET  -2.044650  -2.323490   3.252850
                                CHANNELS 3 Zrotation Xrotation Yrotation
                                JOINT RightFinger01
                                {
                                    OFFSET  -3.088130   0.000000   0.000000
                                    CHANNELS 3 Zrotation Xrotation Yrotation
                                    JOINT RightFinger02
                                    {
                                        OFFSET  -2.639460   0.000000   0.000000
                                        CHANNELS 3 Zrotation Xrotation Yrotation
                                        End Site
                                        {
                                            OFFSET  -2.582190   0.000000   0.000000
                                        }
                                    }
                                }
                            }
                            JOINT RightFinger1
                            {
                                OFFSET  -8.364480   0.000000   3.252850
                                CHANNELS 3 Zrotation Xrotation Yrotation
                                JOINT RightFinger11
                                {
                                    OFFSET  -4.646930   0.000000   0.000000
                                    CHANNELS 3 Zrotation Xrotation Yrotation
                                    JOINT RightFinger12
                                    {
                                        OFFSET  -2.323470   0.000000   0.000000
                                        CHANNELS 3 Zrotation Xrotation Yrotation
                                        End Site
                                        {
                                            OFFSET  -2.273050   0.000000   0.000000
                                        }
                                    }
                                }
                            }
                            JOINT RightFinger2
                            {
                                OFFSET  -8.364480   0.000000   1.078090
                                CHANNELS 3 Zrotation Xrotation Yrotation
                                JOINT RightFinger21
                                {
                                    OFFSET  -5.111610   0.000000   0.000000
                                    CHANNELS 3 Zrotation Xrotation Yrotation
                                    JOINT RightFinger22
                                    {
                                        OFFSET  -2.788160   0.000000   0.000000
                                        CHANNELS 3 Zrotation Xrotation Yrotation
                                        End Site
                                        {
                                            OFFSET  -2.727660   0.000000   0.000000
                                        }
                                    }
                                }
                            }
                            JOINT RightFinger3
                            {
                                OFFSET  -7.899780   0.000000  -1.078090
                                CHANNELS 3 Zrotation Xrotation Yrotation
                                JOINT RightFinger31
                                {
                                    OFFSET  -4.646920   0.000000   0.000000
                                    CHANNELS 3 Zrotation Xrotation Yrotation
                                    JOINT RightFinger32
                                    {
                                        OFFSET  -2.323470   0.000000   0.000000
                                        CHANNELS 3 Zrotation Xrotation Yrotation
                                        End Site
                                        {
                                            OFFSET  -2.273050   0.000000   0.000000
                                        }
                                    }
                                }
                            }
                            JOINT RightFinger4
                            {
                                OFFSET  -7.435090   0.000000  -3.252850
                                CHANNELS 3 Zrotation Xrotation Yrotation
                                JOINT RightFinger41
                                {
                                    OFFSET  -3.717550   0.000000   0.000000
                                    CHANNELS 3 Zrotation Xrotation Yrotation
                                    JOINT RightFinger42
                                    {
                                        OFFSET  -1.858770   0.000000   0.000000
                                        CHANNELS 3 Zrotation Xrotation Yrotation
                                        End Site
                                        {
                                            OFFSET  -1.818440   0.000000   0.000000
                                        }
                                    }
                                }
                            }
                        }
                    }
                }
            }
        }
    }
    JOINT LeftHip
    {
        OFFSET   9.783010   0.000000   0.000000
        CHANNELS 3 Zrotation Xrotation Yrotation
        JOINT LeftKnee
        {
            OFFSET   0.000070 -41.789100   0.000028
            CHANNELS 3 Zrotation Xrotation Yrotation
            JOINT LeftAnkle
            {
                OFFSET   0.000087 -41.133200  -0.000100
                CHANNELS 3 Zrotation Xrotation Yrotation
                JOINT LeftToe
                {
                    OFFSET   0.000000  -6.358960  14.674500
                    CHANNELS 3 Zrotation Xrotation Yrotation
                    End Site
                    {
                        OFFSET   0.000000   0.000000   3.913200
                    }
                }
            }
        }
    }
    JOINT RightHip
    {
        OFFSET  -9.783020   0.000000   0.000000
        CHANNELS 3 Zrotation Xrotation Yrotation
        JOINT RightKnee
        {
            OFFSET   0.000044 -41.789100  -0.000870
            CHANNELS 3 Zrotation Xrotation Yrotation
            JOINT RightAnkle
            {
                OFFSET  -0.000090 -41.133200  -0.000245
                CHANNELS 3 Zrotation Xrotation Yrotation
                JOINT RightToe
                {
                    OFFSET   0.000000  -6.358960  14.674500
                    CHANNELS 3 Zrotation Xrotation Yrotation
                    End Site
                    {
                        OFFSET   0.000000   0.000000   3.913200
                    }
                }
            }
        }
    }
}
MOTION
Frames: 5
Frame Time:   0.016667
 -0.266215  89.619000  -2.408190  -3.600680  -8.754730  -4.015840   1.121490   5.321710   1.196060   2.144630  10.664900   2.301810   0.798295  -0.528921   0.004226   1.312020  -1.077970   2.798560  -5.480520  -0.225679  -0.250678 -73.362600  16.787100  -2.855480  -1.807540  -1.637890 -17.191900  18.570500 -12.095700   6.257250  41.066300  32.377100 -61.646400 -28.419300  -0.006494   0.001509  -9.203050  -0.006427   0.003447 -32.936600   7.303740 -11.100300 -27.529600  -0.003473  -0.003372 -19.286300   0.003731  -0.002816 -28.736800   0.851310  -1.567840 -40.004400  -0.001532  -0.006512 -26.642900   0.003832  -0.004965 -28.582700   0.847201  -1.570130 -37.242200  -0.003850  -0.006056 -24.803300   0.013822  -0.006075 -33.351200   0.605319  -0.919613 -50.034200  -0.001670  -0.008865 -33.322800   0.001519  -0.006174  11.043700   0.660438   6.911580  68.961000  14.279400  -8.012210  -3.016880  -3.000470  18.249400 -14.799000  -8.376100  -1.482710 -40.340000  31.547200  63.536300  27.980900  -0.002629  -0.001089   8.990440  -0.003800  -0.006767  28.591700   4.749980   8.644040  23.686900   0.001026  -0.001267  16.580900  -0.005401  -0.010284  28.326700   3.006300   5.539410  35.781800  -0.009905  -0.003099  23.830700  -0.010118  -0.001338  27.830800   1.940980   3.663370  31.324100  -0.002323   0.002640  20.861800  -0.001061   0.001584  34.626800   0.332653   0.470379  51.942100  -0.003392   0.003027  34.593500  -0.003114   0.002032   3.143730  10.631700   3.957850   1.451480   0.001380   9.629920  -1.797180  -2.751660   3.169640  -0.000000   0.000000  -0.000000   4.375120   8.134330  -4.525350  -1.721450   2.835150  -9.166870   1.043210  -3.201700   4.010740  -0.000000   0.000000  -0.000000
 -0.266204  89.618900  -2.417990  -3.600930  -8.759060  -4.015890   1.121570   5.326400   1.196050   2.144710  10.674200   2.301790   0.791749  -0.528926   0.004227   1.301260  -1.077840   2.808590  -5.480330  -0.230404  -0.251060 -73.359600  16.795000  -2.863750  -1.808850  -1.641070 -17.204000  18.561700 -12.091900   6.257170  41.062900  32.386900 -61.657900 -28.420500  -0.006488   0.001496  -9.202680  -0.006427   0.003425 -32.943100   7.304230 -11.101100 -27.535300  -0.003475  -0.003368 -19.286300   0.003734  -0.002812 -28.736900   0.851313  -1.562180 -40.014700  -0.001528  -0.006502 -26.649700   0.003827  -0.004959 -28.582800   0.847204  -1.564460 -37.255200  -0.003852  -0.006054 -24.811900   0.013826  -0.006064 -33.358500   0.605338  -0.919647 -50.045100  -0.001679  -0.008852 -33.330000   0.001514  -0.006169  11.043900   0.660582   6.905080  68.982400  14.279100  -8.011960  -3.021040  -2.998900  18.267500 -14.803900  -8.390880  -1.482530 -40.317700  31.531000  63.555800  27.992000  -0.002625  -0.001062   8.995990  -0.003784  -0.006763  28.618000   4.753490   8.640570  23.708600   0.001026  -0.001258  16.596000  -0.005395  -0.010279  28.326700   3.006420   5.539830  35.827400  -0.009906  -0.003103  23.861000  -0.010121  -0.001324  27.830800   1.940730   3.663370  31.366200  -0.002323   0.002639  20.889900  -0.001054   0.001595  34.648500   0.332835   0.462788  51.974800  -0.003389   0.003031  34.615200  -0.003107   0.002035   3.143580  10.631900   3.957940   1.450970   0.001976   9.625880  -1.797410  -2.745110   3.169840  -0.000000   0.000000   0.000000   4.374600   8.126100  -4.525280  -1.722950   2.840810  -9.164920   1.056710  -3.210430   4.010380  -0.000000   0.000000  -0.000000
 -0.266130  89.618900  -2.434850  -3.601640  -8.770140  -4.016010   1.122610   5.335480   1.195930   2.146680  10.692400   2.301260   0.780185  -0.528965   0.004227   1.282190  -1.077700   2.828240  -5.480140  -0.237006  -0.251443 -73.353700  16.818900  -2.879770  -1.812470  -1.651190 -17.221300  18.545700 -12.085800   6.257030  41.059500  32.396700 -61.669400 -28.421700  -0.006480   0.001466  -9.202310  -0.006426   0.003379 -32.949500   7.304720 -11.101800 -27.541000  -0.003483  -0.003354 -19.286300   0.003747  -0.002802 -28.737000   0.851316  -1.552560 -40.024900  -0.001517  -0.006475 -26.656600   0.003816  -0.004941 -28.582900   0.847208  -1.554820 -37.268100  -0.003860  -0.006047 -24.820600   0.013839  -0.006036 -33.366000   0.605384  -0.919727 -50.056400  -0.001703  -0.008821 -33.337500   0.001498  -0.006156  11.044100   0.660775   6.898580  69.014400  14.278800  -8.010270  -3.028850  -2.995250  18.299700 -14.808800  -8.405660  -1.482350 -40.287900  31.511700  63.587200  28.003100  -0.002613  -0.001003   9.001530  -0.003753  -0.006754  28.644000   4.759270   8.637120  23.730200   0.001029  -0.001231  16.611200  -0.005379  -0.010265  28.326700   3.006650   5.540250  35.873000  -0.009909  -0.003112  23.891400  -0.010129  -0.001287  27.830900   1.940480   3.663360  31.408300  -0.002323   0.002638  20.917900  -0.001035   0.001626  34.670300   0.333091   0.455197  52.007400  -0.003386   0.003041  34.636900  -0.003086   0.002039   3.143330  10.633200   3.958120   1.450450   0.002572   9.619320  -1.797460  -2.729750   3.170030  -0.000000   0.000000   0.000000   4.374530   8.112850  -4.525230  -1.728370   2.856810  -9.156120   1.080410  -3.228650   4.007620  -0.000000   0.000000  -0.000000
 -0.265921  89.618800  -2.449600  -3.601860  -8.787160  -4.010000   1.125660   5.345390   1.194210   2.152810  10.712200   2.297270   0.768890  -0.529788   0.004225   1.263530  -1.078640   2.851170  -5.480190  -0.239311  -0.249051 -73.346700  16.862600  -2.898290  -1.818780  -1.670730 -17.228600  18.529400 -12.080200   6.258430  41.063800  32.396800 -61.668600 -28.415000  -0.006479   0.001426  -9.203420  -0.006420   0.003320 -32.946700   7.300970 -11.096100 -27.537200  -0.003502  -0.003329 -19.286300   0.003773  -0.002785 -28.737200   0.847908  -1.544370 -40.020700  -0.001502  -0.006431 -26.653600   0.003800  -0.004913 -28.583000   0.843808  -1.546630 -37.261400  -0.003872  -0.006034 -24.816100   0.013859  -0.005992 -33.366300   0.605456  -0.919847 -50.056700  -0.001740  -0.008776 -33.337800   0.001469  -0.006139  11.043200   0.660831   6.899650  69.031800  14.279900  -8.002750  -3.036620  -2.992490  18.331500 -14.782600  -8.397220  -1.483350 -40.290700  31.516800  63.617200  27.992900  -0.002590  -0.000920   8.996290  -0.003717  -0.006746  28.639400   4.764780   8.641710  23.727100   0.001036  -0.001191  16.609000  -0.005358  -0.010238  28.327000   3.006960   5.536040  35.861000  -0.009917  -0.003130  23.883400  -0.010142  -0.001226  27.830900   1.940540   3.664680  31.394800  -0.002328   0.002634  20.908900  -0.001004   0.001678  34.656800   0.333201   0.459899  51.987200  -0.003381   0.003057  34.623400  -0.003053   0.002046   3.142600  10.652600   3.958620   1.454730  -0.022136   9.615260  -1.794470  -2.701080   3.169480  -0.000000   0.000000  -0.000000   4.381520   8.100900  -4.532220  -1.739920   2.885380  -9.134460   1.102980  -3.251970   3.991140  -0.000000   0.000000   0.000000
 -0.265690  89.618800  -2.464780  -3.601210  -8.808890  -3.996040   1.129780   5.356850   1.190530   2.161270  10.735200   2.289370   0.758152  -0.531104   0.004222   1.245790  -1.080480   2.875470  -5.480570  -0.240701  -0.243832 -73.340000  16.915000  -2.917390  -1.826070  -1.693350 -17.233500  18.514600 -12.076100   6.261270  41.067800  32.397300 -61.667400 -28.408300  -0.006476   0.001374  -9.205880  -0.006409   0.003245 -32.943100   7.294870 -11.086700 -27.532300  -0.003526  -0.003297 -19.286200   0.003807  -0.002763 -28.737400   0.842265  -1.536080 -40.014000  -0.001482  -0.006376 -26.649000   0.003780  -0.004877 -28.583300   0.838177  -1.538330 -37.250800  -0.003887  -0.006018 -24.809000   0.013885  -0.005936 -33.366300   0.605540  -0.919988 -50.056800  -0.001788  -0.008719 -33.337800   0.001433  -0.006116  11.041400   0.660834   6.903410  69.044300  14.285900  -7.987440  -3.046080  -2.983830  18.362500 -14.745700  -8.379430  -1.486880 -40.307100  31.533700  63.646000  27.977200  -0.002563  -0.000825   8.988600  -0.003671  -0.006727  28.629400   4.768000   8.648690  23.719500   0.001045  -0.001137  16.603700  -0.005330  -0.010204  28.327300   3.007180   5.531830  35.837500  -0.009926  -0.003150  23.867800  -0.010158  -0.001147  27.830700   1.940960   3.669790  31.370100  -0.002336   0.002627  20.892500  -0.000964   0.001744  34.631700   0.333237   0.468640  51.949600  -0.003377   0.003078  34.598400  -0.003011   0.002053   3.143120  10.670800   3.959020   1.459560  -0.046845   9.609830  -1.791810  -2.681210   3.166110  -0.000000   0.000000   0.000000   4.392670   8.093980  -4.539180  -1.752810   2.917870  -9.112110   1.123160  -3.277850   3.964030   0.000000   0.000000  -0.000000
